# xmcd
# 
# Track frame offsets:
#     150
#     14545
#     27920
#     42707
#     56952
#     71062
#     85297
#     100185
#     114790
#     128902
#     142912
#     155795
#     170090
#     183287
#     196697
#     210357
#     224150
#     237907
#     251002
#     264712
# 
# Disc length: 3689
# 
# Revision: 0
# Processed by: cddbd v1.5.2PL0 Copyright (c) Steve Scherf et al.
# Submitted via: fre:ac v1.0.31
# 
DISCID=2d0e6714
DTITLE=Charley Patton - The Complete Works  Disc 2
DYEAR=0
DGENRE=
TTITLE0=Frankie and Albert
TTITLE1=Some These Days I'll Be Gone (take 1)
TTITLE2=Some These Days I'll Be Gone (take 2)
TTITLE3=Green River Blues
TTITLE4=Farrell Blues (Henry Sims, vcl)
TTITLE5=Come Back Corrina (Henry Sims, Vocal)
TTITLE6=Hammer Blues (Take 1)
TTITLE7=Hammer Blues (Take 2)
TTITLE8=Magnolia Blues
TTITLE9=When Your Way Gets Dark
TTITLE10=Heart Like Railroad Steel
TTITLE11=Some Happy Day
TTITLE12=You're Gonna Need Somebody When You Die
TTITLE13=Jim Lee Blues - Part I
TTITLE14=Jim Lee Blues - Part II
TTITLE15=High Water Everywhere - Part I
TTITLE16=High Water Everywhere - Part II
TTITLE17=Jesue Is A Dying-Bed Maker
TTITLE18=I Shall Not Be Moved (Take 1)
TTITLE19=Rattlesnake Blues
EXTD=
EXTT0=
EXTT1=
EXTT2=
EXTT3=
EXTT4=
EXTT5=
EXTT6=
EXTT7=
EXTT8=
EXTT9=
EXTT10=
EXTT11=
EXTT12=
EXTT13=
EXTT14=
EXTT15=
EXTT16=
EXTT17=
EXTT18=
EXTT19=
PLAYORDER=
